# xmcd
#
# Track frame offsets: 
#        150
#        16202
#        34228
#        47911
#        60425
#        74365
#        87696
#        101905
#        120052
#        132068
#        141305
#        158120
#        172519
#        183928
#        199409
#        212196
#        225699
#        243344
#        254984
#        266265
#
# Disc length: 3789 seconds
#
# Revision: 1
# Processed by: cddbd v1.5.2PL0 Copyright (c) Steve Scherf et al.
# Submitted via: ExactAudioCopyFreeDBPlugin 1.0
#
DISCID=1d0ecb14
DTITLE=moje piosenki - Andrzej Dąbrowski
DYEAR=1900
DGENRE=Country
TTITLE0=przy ulicy Rybnickiej
TTITLE1=przy ulicy Rybnickiej
TTITLE2=przy ulicy Rybnickiej
TTITLE3=przy ulicy Rybnickiej
TTITLE4=przy ulicy Rybnickiej
TTITLE5=przy ulicy Rybnickiej
TTITLE6=przy ulicy Rybnickiej
TTITLE7=przy ulicy Rybnickiej
TTITLE8=przy ulicy Rybnickiej
TTITLE9=przy ulicy Rybnickiej
TTITLE10=przy ulicy Rybnickiej
TTITLE11=przy ulicy Rybnickiej
TTITLE12=przy ulicy Rybnickiej
TTITLE13=przy ulicy Rybnickiej
TTITLE14=przy ulicy Rybnickiej
TTITLE15=przy ulicy Rybnickiej
TTITLE16=v
TTITLE17=v
TTITLE18=Utwor19
TTITLE19=Utwor20
EXTD=
EXTT0=
EXTT1=
EXTT2=
EXTT3=
EXTT4=
EXTT5=
EXTT6=
EXTT7=
EXTT8=
EXTT9=
EXTT10=
EXTT11=
EXTT12=
EXTT13=
EXTT14=
EXTT15=
EXTT16=
EXTT17=
EXTT18=
EXTT19=
PLAYORDER=
